FILE "Wizard's Harmony (Japan).bin" BINARY
  TRACK 01 MODE2/2352
    INDEX 01 00:00:00
  TRACK 02 AUDIO
    INDEX 00 39:25:05
    INDEX 01 39:27:05
  TRACK 03 AUDIO
    INDEX 00 42:20:18
    INDEX 01 42:22:18
  TRACK 04 AUDIO
    INDEX 00 46:53:58
    INDEX 01 46:55:58
  TRACK 05 AUDIO
    INDEX 00 50:25:60
    INDEX 01 50:27:60
REM LEADOUT 55:14:60
